<?xml version="1.0" encoding="utf-8"?>
<svg id="master-artboard" viewBox="0 0 234.20472717285156 74.36927032470703" version="1.1" xmlns="http://www.w3.org/2000/svg" x="0px" y="0px" style="enable-background:new 0 0 336 235.2;" width="167.20472717285156px" height="54.36927032470703px"><rect id="ee-background" x="0" y="0" width="234.20472717285156" height="74.36927032470703" style="fill: white; fill-opacity: 0; pointer-events: none;"/><g transform="matrix(0.233025461435318, 0, 0, 0.23284085094928744, -253.59329494816487, -134.13137817382812)"><g transform="matrix(1, 0, 0, 1, 0, 0)"><path style="fill: rgb(255, 52, 0);" d="M1118,681.7c-0.1-0.4-0.2-0.8-0.2-1.2c0,0,0,0,0,0c9.7-19.1,24.4-35.2,42.4-46.8&#10;&#9;c18.3-11.7,39.5-18.3,61.3-18.9c0,0,0,0,0,0c0.2,0.3,0.4,0.6,0.7,0.9c0.3,0.5,0.7,0.9,1,1.4c0.5,0.7,0.9,1.3,1.4,2&#10;&#9;c0.3,0.5,0.6,0.9,1,1.4c0.5,0.7,0.9,1.4,1.4,2.1c0.3,0.4,0.6,0.9,0.9,1.3c0.5,0.8,1,1.5,1.5,2.3c0.2,0.4,0.5,0.8,0.7,1.1&#10;&#9;c0.7,1.1,1.4,2.2,2,3.3c0,0.1,0.1,0.1,0.1,0.2c0.7,1.2,1.4,2.3,2.1,3.5c0.2,0.4,0.4,0.7,0.6,1.1c0.5,0.8,0.9,1.6,1.4,2.5&#10;&#9;c0.3,0.5,0.5,0.9,0.8,1.4c0.4,0.7,0.8,1.5,1.2,2.2c0.3,0.5,0.5,1,0.8,1.5c0.4,0.7,0.8,1.4,1.1,2.1c0.3,0.5,0.5,1,0.8,1.5&#10;&#9;c0.4,0.7,0.7,1.4,1.1,2.1c0.3,0.5,0.5,1,0.8,1.5c0.4,0.7,0.7,1.4,1.1,2.2c0.2,0.5,0.5,1,0.7,1.5c0.4,0.8,0.7,1.5,1,2.3&#10;&#9;c0.2,0.5,0.4,1,0.7,1.5c0.2,0.4,0.3,0.7,0.5,1.1c0,0,0,0,0,0c-3.8,2.9-6.3,7.6-6.4,12.8c0,0.1,0,0.1,0,0.2c-0.5,0.1-1,0.3-1.5,0.4&#10;&#9;c-0.5,0.2-1,0.3-1.5,0.5c-0.8,0.3-1.7,0.5-2.5,0.8c-0.6,0.2-1.1,0.4-1.7,0.5c-0.8,0.3-1.6,0.5-2.4,0.8c-0.6,0.2-1.1,0.4-1.7,0.6&#10;&#9;c-0.8,0.3-1.5,0.5-2.3,0.8c-0.6,0.2-1.2,0.4-1.7,0.6c-0.8,0.3-1.5,0.5-2.3,0.8c-0.6,0.2-1.2,0.4-1.8,0.6c-0.7,0.3-1.5,0.6-2.2,0.8&#10;&#9;c-0.6,0.2-1.2,0.4-1.7,0.7c-0.7,0.3-1.5,0.6-2.2,0.9c-0.6,0.2-1.2,0.5-1.7,0.7c-0.7,0.3-1.5,0.6-2.2,0.9c-0.6,0.2-1.1,0.5-1.7,0.7&#10;&#9;c-0.7,0.3-1.5,0.6-2.2,1c-0.6,0.2-1.1,0.5-1.7,0.7c-0.8,0.3-1.5,0.7-2.3,1c-0.5,0.2-1.1,0.5-1.6,0.7c-0.8,0.4-1.6,0.7-2.4,1.1&#10;&#9;c-0.5,0.2-1,0.5-1.5,0.7c-0.9,0.4-1.7,0.8-2.6,1.2c-0.4,0.2-0.8,0.4-1.2,0.6c-1.3,0.6-2.5,1.2-3.8,1.9c-1.2,0.6-2.5,1.3-3.7,1.9&#10;&#9;c-0.4,0.2-0.8,0.4-1.2,0.6c-0.8,0.4-1.7,0.9-2.5,1.3c-0.5,0.3-1,0.5-1.4,0.8c-0.7,0.4-1.5,0.8-2.2,1.2c-0.5,0.3-1,0.6-1.5,0.9&#10;&#9;c-0.7,0.4-1.4,0.8-2.1,1.2c-0.5,0.3-1,0.6-1.6,0.9c-0.7,0.4-1.4,0.8-2.1,1.2c-0.5,0.3-1.1,0.6-1.6,0.9c-0.7,0.4-1.3,0.8-2,1.2&#10;&#9;c-0.5,0.3-1.1,0.6-1.6,1c-0.7,0.4-1.3,0.8-2,1.2c-0.5,0.3-1.1,0.7-1.6,1c-0.7,0.4-1.3,0.8-2,1.3c-0.5,0.3-1,0.7-1.6,1&#10;&#9;c-0.7,0.4-1.3,0.9-2,1.3c-0.5,0.3-1,0.7-1.5,1c-0.7,0.4-1.3,0.9-2,1.3c-0.5,0.3-1,0.7-1.5,1c-0.7,0.5-1.4,1-2,1.4&#10;&#9;c-0.5,0.3-0.9,0.6-1.4,1c-0.7,0.5-1.5,1.1-2.2,1.6c-0.4,0.3-0.8,0.6-1.2,0.9c-0.7,0.5-1.3,1-2,1.5c-2.5-1.6-5.5-2.6-8.7-2.6&#10;&#9;c-1.3,0-2.5,0.1-3.7,0.4c0,0,0,0,0,0c-0.5-0.9-1-1.9-1.4-2.9c-0.2-0.3-0.3-0.6-0.5-0.9c-0.3-0.7-0.7-1.4-1-2&#10;&#9;c-0.2-0.4-0.4-0.8-0.5-1.2c-0.3-0.6-0.6-1.2-0.8-1.8c-0.2-0.4-0.4-0.8-0.5-1.3c-0.3-0.6-0.5-1.2-0.7-1.8c-0.2-0.4-0.3-0.9-0.5-1.3&#10;&#9;c-0.2-0.6-0.5-1.2-0.7-1.8c-0.2-0.4-0.3-0.9-0.5-1.3c-0.2-0.6-0.4-1.2-0.7-1.9c-0.1-0.4-0.3-0.8-0.4-1.3c-0.2-0.7-0.4-1.3-0.7-2&#10;&#9;c-0.1-0.4-0.3-0.8-0.4-1.1c-0.3-0.9-0.5-1.7-0.8-2.6c-0.1-0.2-0.1-0.4-0.2-0.6c-0.3-1.1-0.6-2.1-0.9-3.2c-0.1-0.3-0.2-0.6-0.2-1&#10;&#9;c-0.2-0.7-0.4-1.5-0.6-2.2c-0.1-0.4-0.2-0.8-0.3-1.2c-0.2-0.7-0.3-1.3-0.5-2C1118.2,682.5,1118.1,682.1,1118,681.7z M1147.9,743.6&#10;&#9;c0.1,0.1,0.1,0.1,0.2,0.2c0.2,0.2,0.4,0.4,0.5,0.6c0.4,0.5,0.8,0.9,1.2,1.4c0.2,0.3,0.5,0.5,0.7,0.8c0.3,0.4,0.7,0.8,1.1,1.2&#10;&#9;c0.3,0.3,0.5,0.6,0.8,0.9c0.3,0.4,0.7,0.7,1,1.1c0.3,0.3,0.5,0.6,0.8,0.9c0.3,0.4,0.7,0.7,1,1.1c0.3,0.3,0.6,0.6,0.8,0.9&#10;&#9;c0.3,0.4,0.7,0.7,1,1.1c0.3,0.3,0.6,0.6,0.8,0.8c0.4,0.4,0.7,0.7,1.1,1c0.3,0.3,0.6,0.5,0.8,0.8c0.4,0.4,0.7,0.7,1.1,1&#10;&#9;c0.3,0.3,0.6,0.5,0.8,0.8c0.4,0.4,0.8,0.7,1.2,1.1c0.3,0.2,0.5,0.5,0.8,0.7c0.4,0.4,0.9,0.8,1.3,1.2c0.2,0.2,0.4,0.4,0.7,0.6&#10;&#9;c0.7,0.6,1.4,1.1,2.1,1.7c0.7,0.6,1.4,1.1,2.1,1.7c0.2,0.2,0.5,0.4,0.7,0.5c0.5,0.4,0.9,0.7,1.4,1.1c0.3,0.2,0.6,0.4,0.9,0.6&#10;&#9;c0.4,0.3,0.9,0.6,1.3,1c0.3,0.2,0.6,0.4,0.9,0.7c0.4,0.3,0.9,0.6,1.3,0.9c0.3,0.2,0.6,0.4,0.9,0.7c0.4,0.3,0.8,0.6,1.3,0.9&#10;&#9;c0.3,0.2,0.6,0.4,1,0.6c0.4,0.3,0.9,0.6,1.3,0.8c0.3,0.2,0.6,0.4,1,0.6c0.4,0.3,0.9,0.6,1.3,0.8c0.3,0.2,0.6,0.4,1,0.6&#10;&#9;c0.5,0.3,0.9,0.5,1.4,0.8c0.3,0.2,0.6,0.4,0.9,0.5c0.5,0.3,1,0.6,1.5,0.9c0.3,0.2,0.6,0.3,0.8,0.5c0.6,0.3,1.2,0.7,1.8,1&#10;&#9;c0.2,0.1,0.4,0.2,0.5,0.3c0.6,0.3,1.2,0.6,1.8,0.9l0,0c3-3.2,7.3-5.1,12-5.1c0.9,0,1.7,0.1,2.5,0.2c0.4-0.8,0.8-1.6,1.2-2.4&#10;&#9;c0.7-1.4,1.4-2.8,2-4.2c0.4-0.9,0.9-1.8,1.3-2.7c0.7-1.5,1.4-3,2.2-4.5c0.4-0.8,0.8-1.6,1.1-2.4c1-2,1.9-4,2.8-6.1&#10;&#9;c0.1-0.3,0.3-0.6,0.4-0.9c1.1-2.3,2.1-4.6,3.2-7c0.3-0.8,0.7-1.5,1-2.3c0.7-1.6,1.4-3.1,2.1-4.7c0.4-0.9,0.8-1.9,1.2-2.8&#10;&#9;c0.6-1.4,1.3-2.8,1.9-4.2c0.4-1,0.9-2,1.3-3c0.6-1.4,1.2-2.7,1.8-4.1c0.4-1,0.9-2,1.3-3.1c0.6-1.3,1.2-2.7,1.7-4&#10;&#9;c0.4-1,0.9-2.1,1.3-3.1c0.6-1.4,1.1-2.7,1.7-4.1c0.4-1,0.8-2,1.3-3.1c0.6-1.4,1.1-2.8,1.7-4.2c0.4-1,0.8-2,1.2-3&#10;&#9;c0.6-1.5,1.2-2.9,1.8-4.4c0.4-0.9,0.7-1.8,1.1-2.7c0.7-1.7,1.4-3.4,2-5.1c0.3-0.7,0.5-1.3,0.8-2c0,0,0-0.1,0.1-0.1l0,0&#10;&#9;c-1.8-1.3-3.2-2.9-4.4-4.8c0,0,0,0,0,0c-0.3,0.1-0.6,0.2-0.8,0.3c-0.5,0.2-1.1,0.3-1.6,0.5c-0.8,0.2-1.5,0.5-2.3,0.7&#10;&#9;c-0.5,0.2-1.1,0.3-1.6,0.5c-0.8,0.2-1.5,0.5-2.3,0.8c-0.5,0.2-1,0.4-1.6,0.5c-0.8,0.3-1.6,0.5-2.4,0.8c-0.5,0.2-1,0.3-1.5,0.5&#10;&#9;c-0.9,0.3-1.8,0.6-2.7,1c-0.4,0.1-0.7,0.3-1.1,0.4c-1.3,0.5-2.5,0.9-3.8,1.4c-0.2,0.1-0.4,0.2-0.6,0.2c-1,0.4-2.1,0.8-3.1,1.2&#10;&#9;c-0.4,0.2-0.9,0.4-1.3,0.5c-0.8,0.3-1.6,0.7-2.5,1c-0.5,0.2-1,0.4-1.4,0.6c-0.8,0.3-1.5,0.6-2.3,1c-0.5,0.2-1,0.4-1.5,0.7&#10;&#9;c-0.7,0.3-1.5,0.7-2.2,1c-0.5,0.2-1,0.4-1.5,0.7c-0.8,0.3-1.5,0.7-2.3,1c-0.5,0.2-0.9,0.4-1.4,0.6c-0.8,0.4-1.6,0.8-2.5,1.2&#10;&#9;c-0.4,0.2-0.8,0.4-1.2,0.6c-1.2,0.6-2.4,1.2-3.6,1.8c-1.2,0.6-2.4,1.2-3.6,1.9c-0.4,0.2-0.8,0.4-1.2,0.6c-0.8,0.4-1.6,0.9-2.4,1.3&#10;&#9;c-0.5,0.3-0.9,0.5-1.4,0.8c-0.7,0.4-1.5,0.8-2.2,1.2c-0.5,0.3-1,0.6-1.5,0.8c-0.7,0.4-1.4,0.8-2.1,1.2c-0.5,0.3-1,0.6-1.5,0.9&#10;&#9;c-0.7,0.4-1.3,0.8-2,1.2c-0.5,0.3-1,0.6-1.5,0.9c-0.7,0.4-1.3,0.8-2,1.2c-0.5,0.3-1,0.6-1.6,1c-0.6,0.4-1.3,0.8-1.9,1.2&#10;&#9;c-0.5,0.3-1,0.7-1.6,1c-0.6,0.4-1.3,0.8-1.9,1.2c-0.5,0.3-1,0.7-1.5,1c-0.6,0.4-1.3,0.8-1.9,1.2c-0.5,0.3-1,0.7-1.5,1&#10;&#9;c-0.6,0.4-1.2,0.8-1.9,1.3c-0.5,0.3-1,0.7-1.5,1c-0.6,0.4-1.2,0.9-1.9,1.3c-0.5,0.4-1,0.7-1.5,1.1c-0.6,0.4-1.2,0.9-1.9,1.3&#10;&#9;c-0.5,0.4-1,0.7-1.5,1.1c-0.4,0.3-0.7,0.5-1.1,0.8c0,0,0,0,0,0c1.1,2.2,1.7,4.7,1.7,7.4C1150.9,737.8,1149.8,741,1147.9,743.6&#10;&#9;C1147.9,743.6,1147.9,743.6,1147.9,743.6z M1221.1,790.7c0.3,0.1,0.6,0.2,0.9,0.2c1,0.3,2,0.5,3,0.8c0.1,0,0.1,0,0.2,0&#10;&#9;c1,0.2,1.9,0.4,2.9,0.7c0.3,0.1,0.7,0.1,1,0.2c0.7,0.1,1.4,0.3,2,0.4c0.4,0.1,0.8,0.1,1.2,0.2c0.6,0.1,1.2,0.2,1.9,0.3&#10;&#9;c0.4,0.1,0.9,0.1,1.3,0.2c0.6,0.1,1.2,0.2,1.8,0.3c0.4,0.1,0.9,0.1,1.3,0.2c0.6,0.1,1.2,0.2,1.8,0.2c0.4,0.1,0.9,0.1,1.3,0.2&#10;&#9;c0.6,0.1,1.2,0.1,1.8,0.2c0.4,0,0.9,0.1,1.3,0.1c0.6,0.1,1.2,0.1,1.8,0.2c0.4,0,0.9,0.1,1.3,0.1c0.6,0,1.3,0.1,1.9,0.1&#10;&#9;c0.4,0,0.8,0.1,1.2,0.1c0.7,0,1.4,0.1,2.1,0.1c0,0,0,0,0,0c1.6-6.4,7-11.2,13.6-12.1c0,0,0,0,0,0c0.1-0.8,0.1-1.5,0.2-2.3&#10;&#9;c0.1-0.7,0.1-1.3,0.2-2c0.1-0.9,0.1-1.8,0.2-2.7c0-0.6,0.1-1.3,0.1-1.9c0.1-0.9,0.1-1.9,0.2-2.8c0-0.6,0.1-1.2,0.1-1.8&#10;&#9;c0-1,0.1-2.1,0.1-3.1c0-0.5,0-1,0.1-1.5c0-1.5,0.1-3.1,0.1-4.6c0-1.5,0-3,0-4.5c0-0.2,0-0.4,0-0.7c0-1.4,0-2.8-0.1-4.3&#10;&#9;c0-0.3,0-0.5,0-0.8c0-1.4-0.1-2.8-0.2-4.3c0-0.2,0-0.4,0-0.6c-0.1-1.4-0.2-2.9-0.3-4.3c0-0.1,0-0.1,0-0.2c-0.1-1.5-0.2-2.9-0.3-4.4&#10;&#9;c0-0.2,0-0.5-0.1-0.7c-0.1-1.4-0.3-2.8-0.4-4.2c0-0.3-0.1-0.5-0.1-0.8c-0.2-1.4-0.3-2.8-0.5-4.2c0-0.2,0-0.3-0.1-0.5&#10;&#9;c-0.2-1.4-0.4-2.8-0.6-4.2c0-0.1,0-0.2,0-0.3c-0.2-1.4-0.4-2.9-0.7-4.3c0-0.2-0.1-0.5-0.1-0.7c-0.2-1.4-0.5-2.8-0.7-4.1&#10;&#9;c0-0.2-0.1-0.5-0.1-0.7c-0.3-1.4-0.5-2.8-0.8-4.2c0-0.1-0.1-0.3-0.1-0.4c-0.3-1.4-0.6-2.8-0.9-4.1c0-0.1-0.1-0.3-0.1-0.4&#10;&#9;c-0.3-1.4-0.7-2.8-1-4.2c-0.1-0.2-0.1-0.5-0.2-0.7c-0.3-1.4-0.7-2.7-1.1-4.1c-0.1-0.2-0.1-0.5-0.2-0.7c-0.4-1.4-0.8-2.8-1.2-4.1&#10;&#9;c0-0.1-0.1-0.2-0.1-0.3c-0.1-0.2-0.1-0.4-0.2-0.6c-0.4,0-0.7,0-1.1,0c-0.5,0-1,0-1.5-0.1c-0.2,0.5-0.4,1-0.6,1.4&#10;&#9;c-0.6,1.5-1.2,3.1-1.8,4.6c-0.3,0.8-0.7,1.7-1,2.5c-0.7,1.8-1.4,3.5-2.1,5.3c-0.2,0.6-0.5,1.2-0.7,1.8c-1,2.3-1.9,4.7-2.9,7&#10;&#9;c-0.2,0.5-0.5,1.1-0.7,1.6c-0.8,1.8-1.5,3.6-2.3,5.4c-0.4,0.9-0.7,1.7-1.1,2.6c-0.6,1.5-1.3,3-1.9,4.5c-0.4,0.9-0.8,1.9-1.2,2.8&#10;&#9;c-0.6,1.4-1.2,2.8-1.8,4.2c-0.4,1-0.8,1.9-1.3,2.9c-0.6,1.4-1.2,2.8-1.9,4.2c-0.4,0.9-0.8,1.9-1.3,2.8c-0.7,1.5-1.3,2.9-2,4.4&#10;&#9;c-0.4,0.9-0.8,1.7-1.2,2.6c-0.8,1.8-1.6,3.6-2.5,5.4c-0.2,0.5-0.5,1-0.7,1.5c-1.1,2.3-2.1,4.6-3.2,6.9c-0.3,0.6-0.6,1.3-0.9,1.9&#10;&#9;c-0.8,1.7-1.6,3.3-2.4,5c-0.4,0.8-0.8,1.7-1.2,2.5c-0.7,1.5-1.4,2.9-2.1,4.4c-0.4,0.8-0.7,1.5-1.1,2.3&#10;&#9;C1218.7,781.4,1221,785.8,1221.1,790.7z M1232.5,615.6c0.6,0.9,1.3,1.9,1.9,2.8c0.2,0.3,0.4,0.6,0.6,1c0.6,0.9,1.2,1.8,1.8,2.8&#10;&#9;c0.1,0.2,0.3,0.4,0.4,0.6c0.7,1.1,1.4,2.2,2.1,3.3c0.2,0.3,0.3,0.6,0.5,0.9c0.5,0.9,1.1,1.8,1.6,2.6c0.2,0.3,0.4,0.6,0.6,1&#10;&#9;c0.7,1.1,1.3,2.3,2,3.4c0,0.1,0.1,0.2,0.1,0.3c0.6,1.1,1.2,2.1,1.8,3.2c0.2,0.3,0.4,0.7,0.6,1c0.5,0.9,1,1.8,1.5,2.7&#10;&#9;c0.1,0.3,0.3,0.6,0.4,0.8c0.6,1.2,1.2,2.3,1.8,3.5c0.1,0.3,0.3,0.6,0.4,0.8c0.5,0.9,0.9,1.9,1.4,2.8c0.2,0.4,0.3,0.7,0.5,1.1&#10;&#9;c0.5,1.1,1,2.2,1.5,3.3c0,0.1,0.1,0.2,0.1,0.3c0.3,0.6,0.5,1.2,0.8,1.7c0.7-0.1,1.4-0.1,2.1-0.1c0.4,0,0.8,0,1.2,0.1&#10;&#9;c0.6-1.6,1.1-3.1,1.7-4.7c0.1-0.3,0.2-0.7,0.4-1c0.9-2.4,1.7-4.8,2.5-7.2c0.3-0.7,0.5-1.4,0.8-2.2c0.9-2.6,1.8-5.2,2.7-7.8&#10;&#9;c0.1-0.1,0.1-0.3,0.2-0.4c0.9-2.7,1.8-5.4,2.7-8.1c0.1-0.3,0.2-0.7,0.3-1c0,0,0,0,0,0c-11.9-4.7-24.4-7.5-37.3-8.2&#10;&#9;c0,0,0.1,0.1,0.1,0.1C1232.3,615.3,1232.4,615.4,1232.5,615.6z M1267.5,654.9c-0.4,1.2-0.9,2.4-1.3,3.6c2.1,1.5,3.8,3.4,5,5.7&#10;&#9;c0.4-0.1,0.8-0.2,1.2-0.2c0.3-0.1,0.6-0.1,1-0.2c1.3-0.2,2.6-0.5,3.9-0.7c0.3-0.1,0.6-0.1,1-0.2c1-0.2,2-0.3,3-0.5&#10;&#9;c0.4-0.1,0.9-0.1,1.3-0.2c1-0.2,1.9-0.3,2.9-0.4c0.4-0.1,0.8-0.1,1.2-0.2c1.3-0.2,2.7-0.4,4-0.5c0.2,0,0.3,0,0.5-0.1&#10;&#9;c1.2-0.1,2.3-0.3,3.5-0.4c0.4,0,0.9-0.1,1.3-0.1c1-0.1,1.9-0.2,2.9-0.3c0.4,0,0.9-0.1,1.3-0.1c1.2-0.1,2.3-0.2,3.5-0.3&#10;&#9;c0.2,0,0.4,0,0.5-0.1c1.3-0.1,2.7-0.2,4-0.3c0.4,0,0.8-0.1,1.2-0.1c1-0.1,1.9-0.1,2.9-0.2c0.5,0,0.9-0.1,1.4-0.1c1-0.1,2-0.1,3-0.2&#10;&#9;c0.4,0,0.7,0,1.1-0.1c0.1,0,0.2,0,0.3,0c-11.1-13.5-25-24.5-40.7-32.1c-0.1,0.4-0.3,0.8-0.4,1.2c-0.2,0.5-0.4,1.1-0.5,1.6&#10;&#9;c-0.5,1.5-1,3-1.5,4.4c-0.2,0.5-0.4,1.1-0.5,1.6c-1.3,3.9-2.7,7.8-4,11.7c-0.2,0.6-0.4,1.1-0.6,1.7c-0.5,1.4-1,2.9-1.5,4.3&#10;&#9;C1267.9,653.7,1267.7,654.3,1267.5,654.9z M1260.3,820c0.2-0.9,0.4-1.7,0.6-2.6c0.1-0.3,0.1-0.5,0.2-0.8c0.2-0.8,0.4-1.7,0.6-2.5&#10;&#9;c0,0,0,0,0,0c-4-2-7.1-5.6-8.4-10c-0.2,0-0.4,0-0.6,0c-0.7,0-1.5-0.1-2.2-0.1c-0.4,0-0.9-0.1-1.3-0.1c-0.7,0-1.3-0.1-2-0.1&#10;&#9;c-0.5,0-0.9-0.1-1.4-0.1c-0.6-0.1-1.3-0.1-1.9-0.2c-0.5,0-1-0.1-1.5-0.2c-0.6-0.1-1.2-0.1-1.9-0.2c-0.5-0.1-1-0.1-1.5-0.2&#10;&#9;c-0.6-0.1-1.2-0.2-1.8-0.2c-0.5-0.1-1-0.1-1.5-0.2c-0.6-0.1-1.2-0.2-1.8-0.3c-0.5-0.1-1-0.2-1.5-0.2c-0.6-0.1-1.2-0.2-1.8-0.3&#10;&#9;c-0.5-0.1-1-0.2-1.5-0.3c-0.6-0.1-1.2-0.2-1.8-0.4c-0.5-0.1-1-0.2-1.4-0.3c-0.6-0.1-1.2-0.3-1.8-0.4c-0.5-0.1-0.9-0.2-1.4-0.3&#10;&#9;c-0.6-0.2-1.3-0.3-1.9-0.5c-0.4-0.1-0.9-0.2-1.3-0.3c-0.1,0-0.3-0.1-0.4-0.1c-2.8,5-8.2,8.3-14.3,8.3c-1.3,0-2.5-0.2-3.7-0.5&#10;&#9;c-0.1,0.2-0.2,0.3-0.2,0.5c-0.9,1.7-1.8,3.4-2.7,5.1c-0.3,0.6-0.7,1.2-1,1.9c-1.2,2.3-2.5,4.6-3.7,6.9c-0.3,0.6-0.6,1.1-0.9,1.7&#10;&#9;c-0.9,1.7-1.9,3.5-2.8,5.2c-0.5,0.8-0.9,1.7-1.4,2.5c-0.8,1.5-1.6,2.9-2.4,4.3c-0.5,0.9-1,1.8-1.5,2.7c-0.8,1.4-1.5,2.8-2.3,4.1&#10;&#9;c-0.5,0.9-1,1.9-1.6,2.8c-0.3,0.6-0.6,1.1-1,1.7c14.1,5.8,29.1,8.8,44.6,9c8.5,0.1,17.1-0.8,25.4-2.5c0,0,0,0,0,0&#10;&#9;c0.1-0.2,0.2-0.5,0.3-0.7c0.2-0.4,0.3-0.8,0.5-1.3c0.3-0.6,0.5-1.3,0.8-2c0.2-0.4,0.3-0.8,0.5-1.3c0.3-0.7,0.5-1.3,0.8-2&#10;&#9;c0.2-0.4,0.3-0.8,0.5-1.2c0.3-0.8,0.6-1.5,0.8-2.3c0.1-0.3,0.2-0.6,0.3-1c0.4-1.1,0.8-2.1,1.1-3.2c0.1-0.2,0.1-0.5,0.2-0.7&#10;&#9;c0.3-0.9,0.6-1.7,0.9-2.6c0.1-0.4,0.3-0.8,0.4-1.2c0.2-0.7,0.4-1.4,0.7-2.1c0.1-0.4,0.3-0.9,0.4-1.3c0.2-0.7,0.4-1.3,0.6-2&#10;&#9;c0.1-0.4,0.3-0.9,0.4-1.4c0.2-0.7,0.4-1.3,0.6-2c0.1-0.4,0.2-0.9,0.4-1.3c0.2-0.7,0.4-1.4,0.6-2.1&#10;&#9;C1260.1,820.8,1260.2,820.4,1260.3,820z M1324.2,667.1C1324.2,667.1,1324.2,667.1,1324.2,667.1c-0.4,0-0.8,0-1.2,0&#10;&#9;c-0.6,0-1.2,0-1.7,0.1c-0.8,0-1.6,0.1-2.4,0.1c-0.6,0-1.2,0-1.7,0.1c-0.8,0-1.7,0.1-2.5,0.1c-0.6,0-1.1,0.1-1.7,0.1&#10;&#9;c-0.9,0.1-1.8,0.1-2.7,0.2c-0.5,0-1,0.1-1.4,0.1c-1.2,0.1-2.4,0.2-3.6,0.3c-0.2,0-0.4,0-0.6,0c-1.4,0.1-2.7,0.2-4.1,0.4&#10;&#9;c-0.4,0-0.9,0.1-1.3,0.1c-0.9,0.1-1.9,0.2-2.8,0.3c-0.5,0.1-1.1,0.1-1.6,0.2c-0.8,0.1-1.7,0.2-2.5,0.3c-0.6,0.1-1.1,0.1-1.7,0.2&#10;&#9;c-0.8,0.1-1.6,0.2-2.4,0.3c-0.6,0.1-1.2,0.2-1.7,0.3c-0.8,0.1-1.6,0.2-2.4,0.4c-0.6,0.1-1.2,0.2-1.7,0.3c-0.8,0.1-1.6,0.3-2.4,0.4&#10;&#9;c-0.6,0.1-1.1,0.2-1.7,0.3c-0.8,0.1-1.7,0.3-2.5,0.4c-0.5,0.1-1.1,0.2-1.6,0.3c-0.4,0.1-0.9,0.2-1.3,0.2c0,0,0,0,0,0&#10;&#9;c-0.3,5.3-3.1,9.9-7.2,12.7c0.1,0.3,0.1,0.5,0.2,0.8c0.1,0.4,0.2,0.8,0.4,1.2c0.1,0.5,0.3,1,0.4,1.5c0.1,0.4,0.2,0.8,0.3,1.2&#10;&#9;c0.1,0.5,0.3,1,0.4,1.5c0.1,0.4,0.2,0.8,0.3,1.2c0.1,0.5,0.3,1,0.4,1.6c0.1,0.4,0.2,0.8,0.3,1.2c0.1,0.5,0.3,1.1,0.4,1.6&#10;&#9;c0.1,0.4,0.2,0.8,0.3,1.1c0.1,0.5,0.3,1.1,0.4,1.6c0.1,0.4,0.2,0.7,0.3,1.1c0.1,0.6,0.3,1.2,0.4,1.8c0.1,0.3,0.2,0.7,0.2,1&#10;&#9;c0.1,0.7,0.3,1.3,0.4,2c0.1,0.2,0.1,0.5,0.2,0.7c0.2,0.9,0.4,1.8,0.6,2.8c0,0.1,0,0.1,0,0.2c0.2,0.9,0.3,1.7,0.5,2.6&#10;&#9;c0.1,0.3,0.1,0.6,0.2,0.9c0.1,0.6,0.2,1.2,0.3,1.9c0.1,0.4,0.1,0.7,0.2,1.1c0.1,0.6,0.2,1.1,0.3,1.7c0.1,0.4,0.1,0.8,0.2,1.2&#10;&#9;c0.1,0.5,0.2,1.1,0.3,1.6c0.1,0.4,0.1,0.8,0.2,1.2c0.1,0.5,0.2,1,0.2,1.6c0.1,0.4,0.1,0.8,0.2,1.2c0.1,0.5,0.1,1,0.2,1.5&#10;&#9;c0.1,0.4,0.1,0.8,0.2,1.3c0.1,0.5,0.1,1,0.2,1.5c0,0.4,0.1,0.8,0.1,1.3c0.1,0.5,0.1,1,0.2,1.5c0,0.4,0.1,0.9,0.1,1.3&#10;&#9;c0.1,0.5,0.1,1,0.2,1.5c0,0.4,0.1,0.9,0.1,1.3c0,0.5,0.1,1,0.1,1.5c0,0.4,0.1,0.9,0.1,1.3c0,0.5,0.1,1,0.1,1.5&#10;&#9;c0,0.4,0.1,0.9,0.1,1.3c0,0.5,0.1,1,0.1,1.5c0,0.4,0.1,0.9,0.1,1.3c0,0.5,0.1,1,0.1,1.6c0,0.4,0,0.8,0.1,1.3c0,0.5,0,1.1,0.1,1.6&#10;&#9;c0,0.4,0,0.8,0,1.3c0,0.5,0,1.1,0,1.6c0,0.4,0,0.8,0,1.2c0,0.6,0,1.1,0,1.7c0,0.4,0,0.8,0,1.1c0,0.6,0,1.3,0,1.9c0,0.3,0,0.6,0,1&#10;&#9;c0,0.9,0,1.9,0,2.8c0,1.5,0,3.1-0.1,4.6c0,0.5,0,1,0,1.5c0,1.1-0.1,2.1-0.1,3.2c0,0.6-0.1,1.2-0.1,1.8c-0.1,1-0.1,1.9-0.2,2.9&#10;&#9;c0,0.6-0.1,1.2-0.1,1.8c-0.1,1-0.1,1.9-0.2,2.9c0,0.6-0.1,1.2-0.1,1.8c-0.1,1-0.2,2-0.3,3c0,0.1,0,0.1,0,0.2c4,1.7,7.1,4.9,8.8,8.8&#10;&#9;l0,0c0.4-0.1,0.9-0.2,1.3-0.2c0.3-0.1,0.7-0.1,1-0.2c0.4-0.1,0.8-0.2,1.3-0.3c0.3-0.1,0.7-0.1,1-0.2c0.4-0.1,0.8-0.2,1.2-0.3&#10;&#9;c0.3-0.1,0.7-0.2,1-0.2c0.4-0.1,0.8-0.2,1.2-0.3c0.3-0.1,0.7-0.2,1-0.3c0.4-0.1,0.8-0.2,1.2-0.3c0.3-0.1,0.7-0.2,1-0.3&#10;&#9;c0.4-0.1,0.8-0.2,1.3-0.3c0.3-0.1,0.7-0.2,1-0.3c0.4-0.1,0.9-0.3,1.3-0.4c0.3-0.1,0.6-0.2,0.9-0.3c0.5-0.1,1-0.3,1.5-0.5&#10;&#9;c0.3-0.1,0.5-0.2,0.8-0.2c0.7-0.2,1.5-0.5,2.2-0.7c0.2-0.1,0.3-0.1,0.5-0.2c0.6-0.2,1.2-0.4,1.7-0.6c0.3-0.1,0.5-0.2,0.8-0.3&#10;&#9;c0.5-0.2,0.9-0.3,1.4-0.5c0.3-0.1,0.6-0.2,0.9-0.3c0.4-0.2,0.9-0.3,1.3-0.5c0.3-0.1,0.6-0.2,0.9-0.4c0.4-0.2,0.8-0.3,1.2-0.5&#10;&#9;c0.3-0.1,0.6-0.3,0.9-0.4c0.4-0.2,0.8-0.3,1.2-0.5c0.3-0.1,0.6-0.3,0.9-0.4c0.4-0.2,0.8-0.4,1.2-0.5c0.3-0.1,0.6-0.3,0.9-0.4&#10;&#9;c0.4-0.2,0.8-0.4,1.2-0.6c0.3-0.1,0.6-0.3,0.9-0.4c0.4-0.2,0.8-0.4,1.3-0.6c0.3-0.1,0.6-0.3,0.8-0.4c0.5-0.2,0.9-0.5,1.4-0.7&#10;&#9;c0.2-0.1,0.5-0.2,0.7-0.4c0.6-0.3,1.2-0.6,1.8-1c0.1,0,0.2-0.1,0.3-0.1c0.7-0.4,1.4-0.7,2.1-1.1c0.2-0.1,0.4-0.2,0.5-0.3&#10;&#9;c0.5-0.3,1-0.6,1.5-0.8c0.2-0.1,0.5-0.3,0.7-0.4c0.4-0.3,0.9-0.5,1.3-0.8c0.3-0.2,0.5-0.3,0.8-0.5c0.4-0.2,0.8-0.5,1.2-0.7&#10;&#9;c0.3-0.2,0.5-0.3,0.8-0.5c0.4-0.2,0.8-0.5,1.2-0.8c0.3-0.2,0.5-0.4,0.8-0.5c0.4-0.3,0.8-0.5,1.2-0.8c0.3-0.2,0.5-0.4,0.8-0.5&#10;&#9;c0.2-0.1,0.3-0.2,0.5-0.3c0,0,0,0,0,0c3.4-11.1,5.2-22.6,5.3-34.3C1345.4,711.2,1338.2,687.4,1324.2,667.1z M1332.5,785.1&#10;&#9;c-0.5,0.3-1,0.6-1.5,0.8c-0.2,0.1-0.5,0.3-0.7,0.4c-0.5,0.2-0.9,0.5-1.4,0.7c-0.2,0.1-0.5,0.3-0.7,0.4c-0.5,0.3-1.1,0.5-1.6,0.8&#10;&#9;c-0.2,0.1-0.3,0.2-0.5,0.3c-0.7,0.3-1.4,0.7-2.1,1c-0.2,0.1-0.4,0.2-0.6,0.3c-0.5,0.2-1.1,0.5-1.6,0.7c-0.2,0.1-0.5,0.2-0.7,0.3&#10;&#9;c-0.5,0.2-1,0.4-1.5,0.6c-0.2,0.1-0.5,0.2-0.7,0.3c-0.6,0.2-1.1,0.5-1.7,0.7c-0.2,0.1-0.3,0.1-0.5,0.2c-0.7,0.3-1.5,0.6-2.2,0.9&#10;&#9;c-0.2,0.1-0.4,0.1-0.5,0.2c-0.6,0.2-1.1,0.4-1.7,0.6c-0.2,0.1-0.5,0.2-0.7,0.3c-0.5,0.2-1,0.4-1.5,0.6c-0.2,0.1-0.5,0.2-0.7,0.3&#10;&#9;c-0.6,0.2-1.2,0.4-1.8,0.6c-0.2,0.1-0.3,0.1-0.5,0.2c-0.7,0.3-1.5,0.5-2.3,0.7c-0.2,0.1-0.3,0.1-0.5,0.2c-0.6,0.2-1.2,0.4-1.8,0.5&#10;&#9;c-0.2,0.1-0.5,0.1-0.7,0.2c-0.5,0.2-1.1,0.3-1.6,0.5c-0.2,0.1-0.5,0.1-0.7,0.2c-0.6,0.2-1.2,0.3-1.8,0.5c-0.2,0-0.3,0.1-0.4,0.1&#10;&#9;c-0.8,0.2-1.5,0.4-2.3,0.6c-0.2,0-0.3,0.1-0.5,0.1c-0.6,0.1-1.2,0.3-1.8,0.4c-0.2,0.1-0.5,0.1-0.7,0.2c-0.6,0.1-1.1,0.2-1.7,0.4&#10;&#9;c-0.2,0.1-0.5,0.1-0.7,0.2c-0.6,0.1-1.3,0.3-1.9,0.4c-0.1,0-0.3,0.1-0.4,0.1c-0.7,0.1-1.4,0.3-2,0.4c-1.1,7.5-7.3,13.4-14.9,13.9&#10;&#9;c-0.2,0.9-0.4,1.9-0.7,2.8c-0.1,0.3-0.1,0.6-0.2,0.9c-0.2,0.8-0.4,1.7-0.6,2.5c-0.1,0.4-0.2,0.8-0.3,1.2c-0.2,0.7-0.4,1.5-0.6,2.2&#10;&#9;c-0.1,0.4-0.2,0.8-0.3,1.2c-0.2,0.8-0.5,1.6-0.7,2.5c-0.1,0.3-0.2,0.6-0.2,0.9c-0.3,1.1-0.6,2.2-1,3.3c-0.1,0.3-0.2,0.6-0.3,0.8&#10;&#9;c-0.3,0.8-0.5,1.7-0.8,2.5c-0.1,0.4-0.3,0.8-0.4,1.2c-0.2,0.7-0.5,1.5-0.7,2.2c-0.1,0.4-0.3,0.8-0.4,1.2c-0.3,0.8-0.5,1.6-0.8,2.4&#10;&#9;c-0.1,0.3-0.2,0.6-0.3,0.9c-0.4,1.1-0.8,2.1-1.2,3.2c-0.1,0.3-0.2,0.5-0.3,0.8c-0.2,0.6-0.5,1.3-0.7,1.9&#10;&#9;c33.5-10.1,61.2-34.6,75.4-66.5c-0.6,0.4-1.3,0.7-1.9,1.1C1332.9,784.8,1332.7,784.9,1332.5,785.1z M1181.8,824.2&#10;&#9;c1.3-2.3,2.5-4.6,3.7-6.9c0.2-0.4,0.4-0.8,0.7-1.2c1-1.9,2-3.7,3-5.6c0.4-0.8,0.9-1.6,1.3-2.4c0.8-1.5,1.6-3,2.4-4.5&#10;&#9;c0.2-0.3,0.3-0.7,0.5-1c-3.1-3-4.9-7.2-4.9-11.8c0-1.2,0.2-2.4,0.4-3.5c-0.4-0.2-0.7-0.4-1.1-0.6c-0.3-0.1-0.6-0.3-0.8-0.4&#10;&#9;c-0.8-0.4-1.6-0.9-2.5-1.3c-0.1,0-0.1-0.1-0.2-0.1c-0.8-0.4-1.5-0.9-2.3-1.3c-0.3-0.2-0.6-0.3-0.8-0.5c-0.5-0.3-1.1-0.6-1.6-1&#10;&#9;c-0.3-0.2-0.6-0.4-1-0.6c-0.5-0.3-1-0.6-1.4-0.9c-0.3-0.2-0.7-0.4-1-0.6c-0.5-0.3-0.9-0.6-1.4-0.9c-0.3-0.2-0.7-0.4-1-0.7&#10;&#9;c-0.5-0.3-0.9-0.6-1.4-0.9c-0.3-0.2-0.7-0.5-1-0.7c-0.5-0.3-0.9-0.6-1.4-1c-0.3-0.2-0.6-0.5-1-0.7c-0.5-0.3-0.9-0.7-1.4-1&#10;&#9;c-0.3-0.2-0.6-0.4-0.9-0.7c-0.5-0.4-1-0.8-1.5-1.2c-0.2-0.2-0.5-0.4-0.7-0.6c-0.7-0.6-1.5-1.2-2.2-1.8c-0.7-0.6-1.4-1.2-2.2-1.8&#10;&#9;c-0.2-0.2-0.5-0.4-0.7-0.6c-0.5-0.4-0.9-0.8-1.4-1.2c-0.3-0.2-0.6-0.5-0.8-0.7c-0.4-0.4-0.8-0.7-1.3-1.1c-0.3-0.3-0.6-0.5-0.9-0.8&#10;&#9;c-0.4-0.4-0.8-0.7-1.2-1.1c-0.3-0.3-0.6-0.6-0.9-0.8c-0.4-0.4-0.8-0.7-1.1-1.1c-0.3-0.3-0.6-0.6-0.9-0.9c-0.4-0.4-0.8-0.8-1.1-1.1&#10;&#9;c-0.3-0.3-0.6-0.6-0.8-0.8c-0.4-0.4-0.8-0.8-1.2-1.2c-0.3-0.3-0.5-0.5-0.8-0.8c-0.4-0.5-0.8-0.9-1.3-1.4c-0.2-0.2-0.4-0.5-0.6-0.7&#10;&#9;c-0.6-0.7-1.2-1.4-1.8-2.1c-0.1-0.1-0.2-0.2-0.3-0.3c-0.5-0.6-1-1.2-1.5-1.8c-0.1-0.2-0.2-0.3-0.4-0.5c-2.1,0.9-4.4,1.4-6.8,1.4&#10;&#9;c-3.7,0-7.1-1.3-9.8-3.4v0c-0.8,0.7-1.6,1.5-2.4,2.2c-0.4,0.4-0.8,0.8-1.2,1.2c-0.9,0.9-1.9,1.8-2.8,2.7c-0.2,0.2-0.5,0.5-0.7,0.7&#10;&#9;c-1.2,1.1-2.3,2.3-3.5,3.4c-0.3,0.3-0.6,0.6-0.9,0.9c-0.8,0.9-1.7,1.7-2.5,2.6c-0.4,0.4-0.8,0.8-1.2,1.3c-0.4,0.4-0.9,0.9-1.3,1.3&#10;&#9;c0,0,0,0,0,0c4.2,17.3,12.3,33.6,23.6,47.5c10.8,13.3,24.5,24.2,39.8,31.8c0,0,0,0,0,0c0.4-0.7,0.8-1.4,1.2-2.2&#10;&#9;c0.5-0.9,1-1.8,1.5-2.7c0.8-1.4,1.6-2.9,2.4-4.3c0.5-0.8,0.9-1.7,1.4-2.5c0.9-1.6,1.8-3.3,2.7-4.9&#10;&#9;C1181.1,825.5,1181.5,824.8,1181.8,824.2z M1111.7,747.6c0.1-0.1,0.1-0.1,0.2-0.2c1.1-1.1,2.2-2.1,3.4-3.2c0.3-0.3,0.7-0.6,1-1&#10;&#9;c0.9-0.9,1.9-1.7,2.8-2.6c0.2-0.2,0.3-0.3,0.5-0.5c-0.8-1.9-1.2-4-1.2-6.2c0-4.6,2-8.8,5.2-11.7c-0.1-0.1-0.1-0.2-0.2-0.4&#10;&#9;c-0.4-0.8-0.8-1.6-1.2-2.4c-0.1-0.3-0.3-0.6-0.4-0.8c-0.5-0.9-0.9-1.8-1.3-2.8c0-0.1-0.1-0.1-0.1-0.2c-0.5-1-0.9-2-1.3-3&#10;&#9;c-0.1-0.3-0.2-0.6-0.4-0.8c-0.3-0.8-0.7-1.6-1-2.4c-0.1-0.2-0.2-0.5-0.3-0.7c-0.4-1-0.8-2-1.2-3c-0.1-0.2-0.2-0.4-0.2-0.6&#10;&#9;c-0.3-0.8-0.6-1.7-0.9-2.5c-0.1-0.3-0.2-0.6-0.3-0.9c-0.3-1-0.7-2-1-3c0-0.1,0-0.1-0.1-0.2c-0.3-1-0.7-2.1-1-3.2&#10;&#9;c-0.1-0.3-0.2-0.6-0.2-0.8c-0.1-0.4-0.2-0.7-0.3-1.1c-4.8,12.9-7.2,26.4-7.3,40.4c-0.1,6.4,0.4,12.9,1.4,19.2&#10;&#9;c0.4-0.4,0.8-0.8,1.1-1.1c0.3-0.3,0.7-0.7,1-1C1109.4,749.8,1110.5,748.7,1111.7,747.6z" transform="matrix(1, 0, 0, 1, 0, 0)"/></g></g><path d="M 256.76837158203125 84.369384765625 C 256.76837158203125 87.10938262939453 256.0750427246094 89.26604461669922 254.68836975097656 90.8393783569336 C 253.3017120361328 92.40604400634766 251.3717041015625 93.18938446044922 248.89837646484375 93.18938446044922 C 246.3783721923828 93.18938446044922 244.43170166015625 92.41938018798828 243.05838012695312 90.87937927246094 C 241.68504333496094 89.3393783569336 240.99838256835938 87.16271209716797 240.99838256835938 84.34938049316406 C 240.99838256835938 81.55604553222656 241.68836975097656 79.39271545410156 243.06837463378906 77.85938262939453 C 244.44171142578125 76.3260498046875 246.39505004882812 75.55937957763672 248.92837524414062 75.55937957763672 C 251.3883819580078 75.55937957763672 253.30838012695312 76.3393783569336 254.68836975097656 77.89938354492188 C 256.0750427246094 79.46604919433594 256.76837158203125 81.62271118164062 256.76837158203125 84.369384765625 M 243.10838317871094 84.369384765625 C 243.10838317871094 86.68938446044922 243.60504150390625 88.44937896728516 244.59837341308594 89.64938354492188 C 245.5850372314453 90.84938049316406 247.01837158203125 91.44937896728516 248.89837646484375 91.44937896728516 C 250.79837036132812 91.44937896728516 252.23170471191406 90.85271453857422 253.19837951660156 89.65937805175781 C 254.1717071533203 88.45938110351562 254.6583709716797 86.696044921875 254.6583709716797 84.369384765625 C 254.6583709716797 82.06271362304688 254.175048828125 80.31604766845703 253.2083740234375 79.12937927246094 C 252.24171447753906 77.93605041503906 250.81504821777344 77.3393783569336 248.92837524414062 77.3393783569336 C 247.02838134765625 77.3393783569336 245.5850372314453 77.93937683105469 244.59837341308594 79.1393814086914 C 243.60504150390625 80.3393783569336 243.10838317871094 82.08271789550781 243.10838317871094 84.369384765625 ZM 269.0771484375 92.95938110351562 L 269.0771484375 84.64938354492188 C 269.0771484375 83.60271453857422 268.8404846191406 82.82271575927734 268.3671569824219 82.30937957763672 C 267.88714599609375 81.78938293457031 267.1404724121094 81.52938079833984 266.12713623046875 81.52938079833984 C 264.7804870605469 81.52938079833984 263.7971496582031 81.89271545410156 263.1771545410156 82.619384765625 C 262.55047607421875 83.3460464477539 262.2371520996094 84.54605102539062 262.2371520996094 86.2193832397461 L 262.2371520996094 92.95938110351562 L 260.2871398925781 92.95938110351562 L 260.2871398925781 80.119384765625 L 261.8671569824219 80.119384765625 L 262.1871337890625 81.869384765625 L 262.2771301269531 81.869384765625 C 262.6771545410156 81.23604583740234 263.2371520996094 80.74604797363281 263.9571533203125 80.39938354492188 C 264.6771545410156 80.0527114868164 265.4771423339844 79.87937927246094 266.3571472167969 79.87937927246094 C 267.90380859375 79.87937927246094 269.0704650878906 80.25271606445312 269.8571472167969 80.99938201904297 C 270.63714599609375 81.74604797363281 271.0271301269531 82.93937683105469 271.0271301269531 84.57938385009766 L 271.0271301269531 92.95938110351562 L 269.0771484375 92.95938110351562 ZM 273.9355163574219 87.41938018798828 L 273.9355163574219 85.6393814086914 L 279.69549560546875 85.6393814086914 L 279.69549560546875 87.41938018798828 L 273.9355163574219 87.41938018798828 ZM 284.68707275390625 92.95938110351562 L 282.737060546875 92.95938110351562 L 282.737060546875 74.72938537597656 L 284.68707275390625 74.72938537597656 L 284.68707275390625 92.95938110351562 ZM 290.75653076171875 92.95938110351562 L 288.8065185546875 92.95938110351562 L 288.8065185546875 80.119384765625 L 290.75653076171875 80.119384765625 L 290.75653076171875 92.95938110351562 M 288.6465148925781 76.6393814086914 C 288.6465148925781 76.19271850585938 288.75653076171875 75.86604309082031 288.9765319824219 75.65937805175781 C 289.1898498535156 75.45271301269531 289.46319580078125 75.34938049316406 289.7965087890625 75.34938049316406 C 290.10986328125 75.34938049316406 290.3798522949219 75.45271301269531 290.60650634765625 75.65937805175781 C 290.83319091796875 75.87271118164062 290.946533203125 76.19937896728516 290.946533203125 76.6393814086914 C 290.946533203125 77.07271575927734 290.83319091796875 77.39604949951172 290.60650634765625 77.60938262939453 C 290.3798522949219 77.82938385009766 290.10986328125 77.93937683105469 289.7965087890625 77.93937683105469 C 289.46319580078125 77.93937683105469 289.1898498535156 77.82938385009766 288.9765319824219 77.60938262939453 C 288.75653076171875 77.39604949951172 288.6465148925781 77.07271575927734 288.6465148925781 76.6393814086914 ZM 303.66595458984375 92.95938110351562 L 303.66595458984375 84.64938354492188 C 303.66595458984375 83.60271453857422 303.4292907714844 82.82271575927734 302.9559631347656 82.30937957763672 C 302.4759521484375 81.78938293457031 301.7292785644531 81.52938079833984 300.7159423828125 81.52938079833984 C 299.3692932128906 81.52938079833984 298.3859558105469 81.89271545410156 297.7659606933594 82.619384765625 C 297.1392822265625 83.3460464477539 296.8259582519531 84.54605102539062 296.8259582519531 86.2193832397461 L 296.8259582519531 92.95938110351562 L 294.8759460449219 92.95938110351562 L 294.8759460449219 80.119384765625 L 296.4559631347656 80.119384765625 L 296.77593994140625 81.869384765625 L 296.8659362792969 81.869384765625 C 297.2659606933594 81.23604583740234 297.8259582519531 80.74604797363281 298.54595947265625 80.39938354492188 C 299.2659606933594 80.0527114868164 300.0659484863281 79.87937927246094 300.9459533691406 79.87937927246094 C 302.49261474609375 79.87937927246094 303.6592712402344 80.25271606445312 304.4459533691406 80.99938201904297 C 305.2259521484375 81.74604797363281 305.6159362792969 82.93937683105469 305.6159362792969 84.57938385009766 L 305.6159362792969 92.95938110351562 L 303.66595458984375 92.95938110351562 ZM 315.0343017578125 93.18938446044922 C 313.1343078613281 93.18938446044922 311.6343078613281 92.61271667480469 310.5343017578125 91.45938110351562 C 309.44097900390625 90.30604553222656 308.8943176269531 88.69937896728516 308.8943176269531 86.6393814086914 C 308.8943176269531 84.57271575927734 309.404296875 82.92938232421875 310.42431640625 81.70938110351562 C 311.4443054199219 80.4893798828125 312.81097412109375 79.87937927246094 314.5243225097656 79.87937927246094 C 316.13763427734375 79.87937927246094 317.4109802246094 80.40937805175781 318.34429931640625 81.4693832397461 C 319.2843017578125 82.52938079833984 319.7543029785156 83.9260482788086 319.7543029785156 85.65937805175781 L 319.7543029785156 86.8893814086914 L 310.904296875 86.8893814086914 C 310.9443054199219 88.39604949951172 311.32763671875 89.53938293457031 312.0543212890625 90.31938171386719 C 312.7743225097656 91.10604858398438 313.7909851074219 91.49938201904297 315.10430908203125 91.49938201904297 C 316.48431396484375 91.49938201904297 317.8509826660156 91.20938110351562 319.2043151855469 90.62937927246094 L 319.2043151855469 92.35938262939453 C 318.51763916015625 92.65937805175781 317.8676452636719 92.87271118164062 317.2543029785156 92.99938201904297 C 316.6409912109375 93.12604522705078 315.9009704589844 93.18938446044922 315.0343017578125 93.18938446044922 M 314.5043029785156 81.50938415527344 C 313.4709777832031 81.50938415527344 312.64764404296875 81.8460464477539 312.0343017578125 82.51937866210938 C 311.4209899902344 83.19271850585938 311.06097412109375 84.12271118164062 310.9543151855469 85.30937957763672 L 317.67431640625 85.30937957763672 C 317.67431640625 84.08271789550781 317.39764404296875 83.14271545410156 316.84429931640625 82.4893798828125 C 316.2976379394531 81.83604431152344 315.51763916015625 81.50938415527344 314.5043029785156 81.50938415527344 Z" transform="matrix(1.7303930521011353, 0, 0, 1.8514946699142456, -350.1343078613281, -118.70137786865234)" style="fill: rgb(255, 51, 0); white-space: pre; color: rgb(51, 51, 51); stroke-opacity: 1;"/></svg>